<svg xmlns="http://www.w3.org/2000/svg" width="512" height="512" viewBox="0 0 512 512"><defs><linearGradient id="a" x1="25.9%" x2="75.9%" y1="-27.8%" y2="118.7%"><stop offset="0%" stop-color="#231F20"/><stop offset="43.1%" stop-color="#231F20"/><stop offset="100%" stop-color="#231F20" stop-opacity="0"/></linearGradient><linearGradient id="b" x1="3%" x2="99.2%" y1="72.3%" y2="32.3%"><stop offset="0%" stop-color="#FBCBBB"/><stop offset="28.8%" stop-color="#D91920"/><stop offset="68.7%" stop-color="#B01419"/><stop offset="100%" stop-color="#730B0E"/></linearGradient><linearGradient id="c" x1="50%" x2="50%" y1="0%" y2="100%"><stop offset="0%" stop-color="#D91920"/><stop offset="100%" stop-color="#730B0E"/></linearGradient><linearGradient id="d" x1="0%" y1="50%" y2="50%"><stop offset="0%" stop-color="#918F90"/><stop offset="33.8%" stop-color="#FFF"/><stop offset="100%" stop-color="#FFF"/></linearGradient><linearGradient id="e" x1="0%" y1="50%" y2="50%"><stop offset="0%" stop-color="#918F90"/><stop offset="33.8%" stop-color="#FFF"/><stop offset="100%" stop-color="#FFF"/></linearGradient><linearGradient id="f" x1="50%" x2="50%" y1="0%" y2="100%"><stop offset="0%" stop-color="#D91920"/><stop offset="100%" stop-color="#730B0E"/></linearGradient><linearGradient id="g" x1="0%" y1="50%" y2="50%"><stop offset="0%" stop-color="#918F90"/><stop offset="33.8%" stop-color="#FFF"/><stop offset="100%" stop-color="#FFF"/></linearGradient><linearGradient id="h" x1="0%" y1="50%" y2="50%"><stop offset="0%" stop-color="#918F90"/><stop offset="33.8%" stop-color="#FFF"/><stop offset="100%" stop-color="#FFF"/></linearGradient><linearGradient id="i" x1="0%" y1="50%" y2="50%"><stop offset="0%" stop-color="#918F90"/><stop offset="33.8%" stop-color="#FFF"/><stop offset="100%" stop-color="#FFF"/></linearGradient><linearGradient id="j" x1="0%" y1="50%" y2="50%"><stop offset="0%" stop-color="#918F90"/><stop offset="33.8%" stop-color="#FFF"/><stop offset="100%" stop-color="#FFF"/></linearGradient><linearGradient id="k" x1="0%" y1="50%" y2="50%"><stop offset="0%" stop-color="#918F90"/><stop offset="33.8%" stop-color="#FFF"/><stop offset="100%" stop-color="#FFF"/></linearGradient><linearGradient id="l" x1="0%" y1="50%" y2="50%"><stop offset="0%" stop-color="#918F90"/><stop offset="33.8%" stop-color="#FFF"/><stop offset="100%" stop-color="#FFF"/></linearGradient><linearGradient id="m" x1="0%" y1="50%" y2="50%"><stop offset="0%" stop-color="#918F90"/><stop offset="33.8%" stop-color="#FFF"/><stop offset="100%" stop-color="#FFF"/></linearGradient><linearGradient id="n" x1="0%" y1="50%" y2="50%"><stop offset="0%" stop-color="#918F90"/><stop offset="33.8%" stop-color="#FFF"/><stop offset="100%" stop-color="#FFF"/></linearGradient><linearGradient id="o" x1="0%" y1="50%" y2="50%"><stop offset="0%" stop-color="#918F90"/><stop offset="33.8%" stop-color="#FFF"/><stop offset="100%" stop-color="#FFF"/></linearGradient><linearGradient id="p" x1="0%" y1="50%" y2="50%"><stop offset="0%" stop-color="#918F90"/><stop offset="33.8%" stop-color="#FFF"/><stop offset="100%" stop-color="#FFF"/></linearGradient><linearGradient id="q" x1="8.2%" x2="95.4%" y1="70.4%" y2="32.1%"><stop offset="0%" stop-color="#F6836C"/><stop offset="14.1%" stop-color="#D91920"/><stop offset="68.7%" stop-color="#B01419"/><stop offset="100%" stop-color="#730B0E"/></linearGradient><linearGradient id="r" x1="100%" x2="0%" y1="50%" y2="50%"><stop offset="0%" stop-color="#D91920"/><stop offset="100%" stop-color="#730B0E"/></linearGradient><linearGradient id="s" x1="-8.3%" x2="108.3%" y1="7.7%" y2="92.3%"><stop offset="0%" stop-color="#918F90"/><stop offset="33.8%" stop-color="#FFF"/><stop offset="100%" stop-color="#FFF"/></linearGradient><linearGradient id="t" x1="50%" x2="50%" y1="0%" y2="100%"><stop offset="0%" stop-color="#D91920"/><stop offset="100%" stop-color="#730B0E"/></linearGradient><linearGradient id="u" x1="39.5%" x2="60.5%" y1="19.1%" y2="80.9%"><stop offset="0%" stop-color="#918F90"/><stop offset="33.8%" stop-color="#FFF"/><stop offset="100%" stop-color="#FFF"/></linearGradient><linearGradient id="v" x1="42.9%" x2="57.1%" y1="21.3%" y2="78.7%"><stop offset="0%" stop-color="#918F90"/><stop offset="33.8%" stop-color="#FFF"/><stop offset="100%" stop-color="#FFF"/></linearGradient><linearGradient id="w" x1="41.4%" x2="58.6%" y1="20.5%" y2="79.5%"><stop offset="0%" stop-color="#918F90"/><stop offset="33.8%" stop-color="#FFF"/><stop offset="100%" stop-color="#FFF"/></linearGradient></defs><g fill="none"><path fill="url(#a)" d="M.7 32L141.2.2l115.1 45.4s54.5 23-39.6 53.2c-17 5.5-34.7 8-52.1 8-72.9 0-143.3-41.8-163.9-75" transform="matrix(1 0 0 -1 238 422)"/><path fill="url(#b)" d="M129.2 203.3c-23.7-2.6-43.2-13.2-43.2-13.2s-59.2-33.5-74.8-43.8c-15.5-10.4-9.5-31.6-9.5-31.6l37.2-77C57.5 13.1 67.4 9.2 100.3 2c32.8-7.2 54.4 8.7 54.4 8.7s58.8 34 74.2 47.4c15.4 13.4 2 50.2 2 50.2s-23.4 60.5-31.9 76.5a41 41 0 0 1-36.3 21.8 331 331 0 0 1-33.5-3.2" transform="matrix(1 0 0 -1 2.5 262.4)"/><path fill="url(#c)" d="M26.8 130.7c-35.4 2.1-25.5-19.5-25.5-19.5s23.4-54.8 27.9-64a99.3 99.3 0 0 1 19.6-26.6C58.8 10 82.1 1.8 104.6.4c22.5-1.4 8.7 28 8.7 28S98 61.5 78.8 98.9c-14.8 28.8-37.5 32-47.3 32-3 0-4.7-.2-4.7-.2" transform="matrix(1 0 0 -1 7.7 262.4)"/><path fill="url(#d)" d="M10.8 80c-3.3-2-2.5-9.5 1.8-16.6C16.9 56.2 23 52 26.4 54c3.3 2 2.5 9.4-1.8 16.6-3.6 6-8.5 9.9-12 9.9-.6 0-1.3-.2-1.8-.5" transform="matrix(1 0 0 -1 50.4 233.2)"/><path fill="url(#e)" d="M2.2 27.2C-1 25.2-.3 17.8 4 10.6 8.4 3.4 14.6-.8 18 1.2c3.3 2 2.5 9.5-1.8 16.6-3.6 6-8.5 10-12 10-.7 0-1.3-.2-1.9-.6" transform="matrix(1 0 0 -1 50.4 233.2)"/><path fill="url(#f)" d="M82.6 177.6l-70-43.9c-18.7-11.6-10-32.8-10-32.8s27.7-61 39.8-85c12-24 32-12.3 32-12.3s49.7 33.7 63.8 44.9c14.1 11 7.3 42.2 7.3 42.2S122.8 149 112 168c-5.5 9.6-13 12-19 12-5.9 0-10.4-2.3-10.4-2.3" transform="matrix(1 0 0 -1 85.9 250)"/><path fill="url(#g)" d="M1 76.7c0-8.6 5.7-15.6 12.7-15.6 7 0 12.8 7 12.8 15.6 0 8.7-5.7 15.7-12.8 15.7-7 0-12.7-7-12.7-15.7" transform="matrix(1 0 0 -1 113 222)"/><path fill="url(#h)" d="M50.8 109.3c0-8.6 5.8-15.6 12.8-15.6 7 0 12.7 7 12.7 15.6 0 8.7-5.7 15.7-12.7 15.7-7 0-12.8-7-12.8-15.7" transform="matrix(1 0 0 -1 113 222)"/><path fill="url(#i)" d="M14.7 46.7c0-8.6 5.7-15.6 12.7-15.6 7 0 12.8 7 12.8 15.6 0 8.7-5.8 15.7-12.8 15.7-7 0-12.7-7-12.7-15.7" transform="matrix(1 0 0 -1 113 222)"/><path fill="url(#j)" d="M63.6 79.7c0-8.6 5.7-15.7 12.7-15.7 7 0 12.8 7 12.8 15.7s-5.7 15.7-12.8 15.7c-7 0-12.7-7-12.7-15.7" transform="matrix(1 0 0 -1 113 222)"/><path fill="url(#k)" d="M77.3 49.8c0-8.7 5.7-15.7 12.8-15.7 7 0 12.7 7 12.7 15.7s-5.7 15.7-12.7 15.7c-7 0-12.8-7-12.8-15.7" transform="matrix(1 0 0 -1 113 222)"/><path fill="url(#l)" d="M28.4 16.5C28.4 7.8 34 .8 41 .8c7 0 12.8 7 12.8 15.7 0 8.6-5.7 15.7-12.8 15.7-7 0-12.7-7-12.7-15.7" transform="matrix(1 0 0 -1 113 222)"/><path fill="#FFF" fill-opacity=".3" d="M119.2 95.9L163.7 70s21.2-12-3.4-11.8a219 219 0 0 0-54 6.6c-6.5 2.4-19.6 8.5-26.2 12.2L19 113S2.5 126 29.7 125.3c27.2-1 46.2-2 74.4-19.5l15-10z"/><path fill="url(#m)" d="M99 43c-8-3.8-13.7-8.1-13-9.7.8-1.6 7.8.2 15.7 4 7.9 3.7 13.6 8 12.8 9.7-.1.4-.7.6-1.6.6a41 41 0 0 1-14-4.6" transform="matrix(1 0 0 -1 33 116)"/><path fill="url(#n)" d="M49.8 12.5C42 8.7 36.2 4.3 37 2.8c.8-1.6 7.8.1 15.6 4 7.9 3.7 13.6 8 12.9 9.7-.2.3-.8.5-1.7.5a41 41 0 0 1-14-4.5" transform="matrix(1 0 0 -1 33 116)"/><path fill="url(#o)" d="M13.9 11C6 7.3.3 3 1 1.3c.8-1.6 7.8.2 15.6 4 8 3.7 13.7 8 12.9 9.7-.2.4-.8.6-1.7.6a41 41 0 0 1-14-4.6" transform="matrix(1 0 0 -1 33 116)"/><path fill="url(#p)" d="M62 40.6c-8-3.8-13.7-8.2-13-9.8.8-1.6 7.8.2 15.7 4 7.9 3.8 13.6 8.1 12.8 9.7-.2.4-.7.6-1.6.6a41 41 0 0 1-14-4.5" transform="matrix(1 0 0 -1 33 116)"/><path fill="url(#q)" d="M51 267.7s-33.4-77-45.9-109A75.4 75.4 0 0 1 9 98.2s13-18.6 31.1-39C58.3 39 89.8 29 89.8 29L194 2.6C234.2-7.7 247 29 247 29s30.3 74 38 101.6c7.8 27.7 7.8 53.6-12.9 93.4a97.2 97.2 0 0 1-59.6 48.4l-110.3 21.7c-2.2.3-4.3.4-6.4.4-29.5 0-45-26.8-45-26.8" transform="matrix(1 0 0 -1 159.9 424)"/><path fill="url(#r)" d="M46.7 204.6l-20.5-54.5s-13-30.9-22.6-57.8C-6.2 65.4 9 28.4 26.2 8.7 43.4-11.1 52.5 10 52.5 10L83 92.7s8 19 12 41.5c3.9 22.3-5.4 49.8-21.8 73.3-5 7.2-9.5 9.7-13.2 9.7-8.5 0-13.3-12.6-13.3-12.6" transform="matrix(1 0 0 -1 351.7 404.3)"/><path fill="url(#s)" d="M1.7 21.8C-.7 10.7.7.9 4.7.1c4-.9 9.2 7.4 11.6 18.6 2.4 11.1 1 20.8-3 21.7h-.6c-4 0-8.7-8-11-18.6" transform="matrix(1 0 0 -1 392.4 318.7)"/><path fill="url(#t)" d="M2.3 94.2s8.7-13 27.5-34.6S77 28.5 77 28.5 174 3.5 185.8 1.2c11.8-2.1 16.7 10-2.4 39-19 29-58.3 40.6-58.3 40.6L71.5 94.2s-32 8.7-54.9 12.5c-2.4.5-4.5.6-6.3.6-14.9 0-8-13-8-13" transform="matrix(1 0 0 -1 173.5 421)"/><g><path fill="url(#u)" d="M53.3 36c-1.3-3.1 6-9 16.4-13.3 10.3-4.3 19.7-5.3 21-2.3 1.2 3-6.1 9-16.5 13.3-6.3 2.6-12.2 4-16.2 4-2.5 0-4.2-.6-4.7-1.8" transform="matrix(1 0 0 -1 230 386)"/><path fill="url(#v)" d="M25.7 27c-1.2-3 6.1-9 16.4-13.3 10.4-4.3 19.7-5.3 21-2.2 1.3 3-6.1 9-16.4 13.2-6.3 2.6-12.3 4-16.2 4-2.6 0-4.3-.6-4.8-1.7" transform="matrix(1 0 0 -1 230 386)"/><path fill="url(#w)" d="M.4 17.5c-1.3-3 6-9 16.4-13.3C27.1 0 36.5-1 37.8 2c1.2 3-6.1 9-16.4 13.2-6.3 2.6-12.3 4-16.3 4-2.5 0-4.2-.6-4.7-1.7" transform="matrix(1 0 0 -1 230 386)"/></g><path fill="#FFF" fill-opacity=".3" d="M264.8 136.5l104.6 20.8s32 6.9 20.3 40.6c-11.6 33.7-41 107.2-41 107.2s-14.3 33.8-49.3 25.5L187 304.3s-26.8-10-16-37.7A5268.3 5268.3 0 0 1 214.7 163s13-30.3 50.1-26.4"/><g><path fill="#FFF" d="M263.1 198.3c-10.6 5.7-22.8 3.4-27.4-5-4.5-8.5.4-20 11-25.7 10.5-5.6 22.8-3.4 27.3 5.1 4.6 8.5-.3 20-10.9 25.6m25.5 47.4c-10.6 5.6-22.8 3.4-27.4-5.1-4.5-8.5.4-20 11-25.6 10.5-5.7 22.8-3.4 27.3 5 4.6 8.5-.3 20-10.9 25.7m-56.3 30.1c-10.6 5.7-22.8 3.4-27.4-5-4.5-8.5.4-20 11-25.6 10.5-5.7 22.8-3.4 27.3 5 4.6 8.5-.3 20-10.9 25.6m113.6-60c-11.2 6-24.2 3.7-29-5.3-4.8-9 .4-21 11.6-27s24.1-3.7 29 5.3c4.7 9-.4 21-11.6 27m-32.1 79.4c-11.2 6-24.2 3.6-29-5.4-4.8-9 .4-21 11.6-27s24.1-3.7 29 5.3c4.7 9-.4 21.1-11.6 27.1"/><path fill="#ED1C24" d="M270.2 168.2s-11.6-7-26.6 1.5c-15 8.4-10 28.8 3.3 31.4 0 0-15 .8-15.5-15.9s25.7-28.8 38.8-17"/><path fill="#D3D2D2" d="M247.4 201s-12-9.5-7.3-20.7c5.5-13 24.8-14 24.8-14s-13.9-5.4-25.8 7c-11.9 12.3-3.1 28.2 8.3 27.6"/><path fill="#ED1C24" d="M353.8 184.1s-11.7-7.4-26.9 1.6-10 30.5 3.3 33.3c0 0-15.1.9-15.6-16.8s25.9-30.5 39.2-18"/><path fill="#D3D2D2" d="M330.7 218.8s-12-10-7.3-21.8c5.5-13.9 25-15 25-15s-14-5.6-26 7.5c-12 13-3.2 30 8.3 29.3"/><path fill="#ED1C24" d="M298.2 217.7s-11-8.2-26.8-1.1c-16 7-12.9 27.9.2 31.8 0 0-15.2-.7-14-17.5 1.1-16.8 28.6-26.3 40.6-13.2"/><path fill="#D3D2D2" d="M272 248.3s-11-10.7-5.2-21.4c6.8-12.6 26.3-11.7 26.3-11.7s-13.4-6.7-26.6 4.5c-13.2 11.2-5.9 28 5.6 28.6"/><path fill="#ED1C24" d="M242.3 247.9s-11-8.1-27-1.1c-15.9 7-12.8 27.9.3 31.8 0 0-15.2-.6-14-17.4 1.1-16.8 28.6-26.4 40.7-13.3"/><path fill="#D3D2D2" d="M216.1 278.5s-11-10.6-5.3-21.4c6.8-12.6 26.4-11.7 26.4-11.7s-13.5-6.7-26.7 4.5c-13.1 11.2-5.9 28 5.6 28.6"/><path fill="#ED1C24" d="M322.9 264.8s-11-8.7-27-1c-16 7.7-13 30.2 0 34.3 0 0-15.1-.5-13.8-18.7 1.2-18.2 28.8-28.7 40.8-14.6"/><path fill="#D3D2D2" d="M296.4 298s-11-11.4-5-23c6.8-13.7 26.4-12.9 26.4-12.9s-13.5-7.1-26.7 5c-13.3 12.3-6.1 30.4 5.3 31"/></g></g></svg>
