<svg xmlns="http://www.w3.org/2000/svg" width="512" height="512" viewBox="0 0 512 512"><g fill="none"><path fill="#CB3837" d="M0 156h512v170.7H256V355H142.2v-28.4H0V156zm28.4 142.2h57V213h28.4v85.3h28.4V184.4H28.4v113.8zm142.3-113.8v142.3h56.9v-28.5h56.8V184.4H170.7zm56.9 28.5H256v56.9h-28.4v-57zm85.3-28.5v113.8h56.9V213h28.4v85.3h28.5V213H455v85.3h28.5V184.4H312.9z"/><path fill="#FFF" d="M28.4 298.2h56.9v-85.3h28.5v85.3h28.4V184.4H28.4zM170.7 184.4v142.3h56.9v-28.5h56.8V184.4H170.7zm85.3 85.4h-28.4v-57H256v57zM312.9 184.4v113.8h56.9v-85.3h28.4v85.3h28.5v-85.3h28.4v85.3h28.5V184.4z"/></g></svg>
