<svg xmlns="http://www.w3.org/2000/svg" xmlns:xlink="http://www.w3.org/1999/xlink" width="512" height="512" viewBox="0 0 512 512"><defs><path id="a" d="M20.2 107c3.2 15 11 23.8 18.8 29h82c10-6.8 20.3-19.7 20.3-43.7V30s1.2-15.5 15.3-20.5c0 0 8.2-5.8-.5-9 0 0-39-3.2-39 28.9v47.3s1.6 17.5-7.6 24.7V42.9s.6-18.6 10.2-25.7c0 0 6.4-11.4-7.6-8.4 0 0-26.8 3.8-28 35.3l-.6 60.2h-6.4l-.6-60.2c-1.2-31.3-28-35.3-28-35.3-14-3.2-7.5 8.4-7.5 8.4 9.6 7 10.2 25.7 10.2 25.7v59.2c-9.2-6.6-7.6-25.3-7.6-25.3V29.5c0-32.1-39-29-39-29-9 3.3-.6 9.1-.6 9.1 14 5.2 15.4 20.5 15.4 20.5v43.5l.8 33.3z"/></defs><g fill="none" fill-rule="evenodd"><path fill="#9EDCF2" fill-rule="nonzero" d="M402 429.5c0 28-64.4 50.4-144 50.4-79.5 0-144-22.7-144-50.4 0-27.9 64.5-50.4 144-50.4 79.6 0 144 22.5 144 50.4z"/><g transform="translate(176 412.7)"><mask id="b" fill="#fff"><use xlink:href="#a"/></mask><path fill="#7DBCE7" fill-rule="nonzero" d="M225.6 16.6c0 28-64.4 50.4-143.7 50.4C2.6 67-61.7 44.3-61.7 16.6c0-27.8 64.3-50.3 143.6-50.3s143.7 22.5 143.7 50.3z" mask="url(#b)"/></g><path fill="#9EDCF2" fill-rule="nonzero" d="M94.8 281.4l-5.1 14.3s-1.2 5 4.6 6c6.4-.1 5.9-4.9 5.4-6.2l-4.9-14z"/><path fill="#010101" fill-rule="nonzero" d="M511.6 221l.4-1.8a485.4 485.4 0 0 0-111.6-7.4c4.2-15.4 5.6-33.4 5.6-53.2a94 94 0 0 0-28-68.5c3-9.8 7-31.6-4-59.4 0 0-19.6-6.2-64.2 23.6a235.1 235.1 0 0 0-115 1.2c-46-31.4-66.2-25-66.2-25-13.2 33-5 57.6-2.6 63.6a91.8 91.8 0 0 0-25 64.3c0 19.8 2.2 37.6 7.8 53-26.4-1-68-.6-108.8 7.6l.4 1.8c40.8-8.2 82.8-8.4 109-7.4 1.2 3.2 2.6 6.4 4 9.4-26 .8-70.2 4.2-112.6 16.1l.6 1.8a495 495 0 0 1 113.2-16c15.6 28.8 46 47.6 100.4 53.4a44.4 44.4 0 0 0-18.8 29c-10.6 5-43.8 17.4-63.8-17 0 0-11.2-20.4-32.6-22 0 0-20.8-.4-1.4 13 0 0 13.8 6.6 23.4 31.2 0 0 12.6 42 72.8 28.3v43s-1.2 15.4-15.4 20.4c0 0-8.4 5.8.6 9 0 0 39 3.2 39-28.8V337s-1.6-18.7 7.6-25.1v77.5s-.6 18.6-10.2 25.6c0 0-6.4 11.4 7.6 8.4 0 0 26.8-3.8 28-35.2l.6-78.5h6.4l.6 78.5a34.8 34.8 0 0 0 28 35.2c14 3.2 7.6-8.4 7.6-8.4-9.6-7-10.2-25.6-10.2-25.6v-77c9.2 7.3 7.6 24.6 7.6 24.6v47.2c0 32 39 28.8 39 28.8 9-3.2.6-9 .6-9-14-5.2-15.4-20.4-15.4-20.4v-62c0-24.1-10.2-36.9-20.2-43.5 58-5.8 85.8-24.4 98.6-53.5 25.4.6 71.2 3.8 114.8 16.1l.6-1.8a500.5 500.5 0 0 0-114.6-16.1c1.2-3 2.2-6 3.2-9.2 26.8-1 70.2-1 112.6 7.4z"/><path fill="#F5CCB3" fill-rule="nonzero" d="M349.7 157.4c12.4 11.3 19.8 24.9 19.8 39.4 0 68.6-51.3 70.4-114.5 70.4-63.3 0-114.5-9.6-114.5-70.4 0-14.5 7.2-28 19.6-39.2 20.6-18.8 55.4-8.8 94.9-8.8 39.4 0 74-10.2 94.7 8.6z"/><path fill="#FFF" fill-rule="nonzero" d="M216.8 200.5c0 19-10.6 34.1-24 34.1-13.2 0-23.8-15.4-23.8-34.1 0-19 10.6-34.1 23.9-34.1 13.3-.2 24 15.2 24 34.1z"/><path fill="#AF5C51" fill-rule="nonzero" d="M208.7 201.5c0 12.7-7.2 23-15.8 23-8.8 0-15.8-10.3-15.8-23 0-12.6 7.2-22.9 15.8-22.9 8.6 0 15.8 10.3 15.8 23z"/><path fill="#FFF" fill-rule="nonzero" d="M345 200.5c0 19-10.6 34.1-23.9 34.1-13.2 0-23.9-15.4-23.9-34.1 0-19 10.7-34.1 24-34.1 13-.2 23.9 15.2 23.9 34.1z"/><path fill="#AF5C51" fill-rule="nonzero" d="M337 201.5c0 12.7-7.3 23-15.9 23-8.7 0-15.7-10.3-15.7-23 0-12.6 7.2-22.9 15.7-22.9 8.8 0 15.8 10.3 15.8 23zm-75.4 30c0 3.3-2.6 6.2-6.1 6.2a6.1 6.1 0 0 1-6.1-6.2 6 6 0 0 1 6-6c3.3 0 6.2 2.6 6.2 6zm-20.2 14.8c-.4-1 .2-2 1.1-2.4 1-.4 2 .2 2.4 1.2 1.6 4.3 5.5 7.1 10 7.1 4.6 0 8.6-3 10.1-7.1.4-1 1.4-1.6 2.4-1.2 1 .4 1.6 1.4 1.2 2.4-2 5.7-7.5 9.7-13.6 9.7s-11.7-4-13.6-9.7z"/><path fill="#C4E5D9" fill-rule="nonzero" d="M111.2 275.4a5 5 0 0 1-5.2 5.2 5.2 5.2 0 0 1-5.2-5.2 5 5 0 0 1 5.2-5.2 5 5 0 0 1 5.2 5.2zm11.2 7.1a5 5 0 0 1-5.2 5.2 5.2 5.2 0 0 1-5.2-5.2 5 5 0 0 1 5.2-5.2 5 5 0 0 1 5.2 5.2z"/><path fill="#C4E5D9" fill-rule="nonzero" d="M129.5 290.7a5 5 0 0 1-5.2 5.2 5.2 5.2 0 0 1-5.2-5.2 5 5 0 0 1 5.2-5.2c3-.3 5.2 2.2 5.2 5.2zm6 9.2a5 5 0 0 1-5.1 5.1 5.2 5.2 0 0 1-5.2-5.1 5 5 0 0 1 5.2-5.2c3-.4 5.2 2.2 5.2 5.2zm7.2 9.1a5 5 0 0 1-5.2 5.2 5.2 5.2 0 0 1-5.2-5.2 5 5 0 0 1 5.2-5.2 5 5 0 0 1 5.2 5.2zm10.2 8.2a5 5 0 0 1-5.2 5.1 5.2 5.2 0 0 1-5.2-5.1 5 5 0 0 1 5.2-5.2c3-.4 5.2 2.2 5.2 5.2zm13.2 4a5 5 0 0 1-5.2 5.2 5.2 5.2 0 0 1-5.2-5.2 5 5 0 0 1 5.2-5.2 5 5 0 0 1 5.2 5.2zm13.3 0a5 5 0 0 1-5.2 5.2 5.2 5.2 0 0 1-5.2-5.2 5 5 0 0 1 5.2-5.2 5 5 0 0 1 5.2 5.2zm13.2-2a5 5 0 0 1-5.2 5.2 5.2 5.2 0 0 1-5.2-5.2 5 5 0 0 1 5.2-5.2c2.7 0 5.2 2.2 5.2 5.2z"/></g></svg>
