<svg xmlns="http://www.w3.org/2000/svg" width="512" height="512" viewBox="0 0 512 512"><g fill="none"><path fill="#BF392B" d="M42.5 285.5l46.3-81a17.6 17.6 0 0 1 24-6.4l341.8 199.2a17.6 17.6 0 0 1 6.4 24l-46.3 81a17.6 17.6 0 0 1-24 6.4L49 309.5a17.6 17.6 0 0 1-6.4-24z"/><path fill="#AC3327" d="M89.2 206l-.8-.8-9.1 16.4 262.3 234L89.2 206z"/><path fill="#D6D6D6" d="M414.7 502.3l46.3-81c4.8-8.4 2-19.2-6.4-24l-108.2-63-67.5 109.3 111.8 65.1c8.4 4.8 19.2 2 24-6.4z"/><path fill="#CACACA" d="M298.1 412.5l-2 2.8 45.1 40.3z"/><path fill="#E2574C" d="M89.2 181.7l65.5-65.1c6.8-6.8 18-6.8 24.8 0l278.7 276a17.1 17.1 0 0 1 0 24.3l-65.5 65c-6.8 6.9-18 6.9-24.7 0L89.2 206a17.1 17.1 0 0 1 0-24.3z"/><path fill="#CB4E44" d="M150.3 121l-15.1 14.8 175.7 263.5L150.3 121z"/><path fill="#E0E0E0" d="M458.2 416.9a17.1 17.1 0 0 0 0-24.4l-94.6-93.4-91 88.2L368 482c6.7 6.7 18 6.7 24.7 0l65.5-65.1z"/><path fill="#D07C40" d="M156.7 97l81-46.7c8.5-4.8 19.3-2 24 6.4l198.9 345c4.8 8.4 2 19.2-6.4 24l-81 46.7c-8.4 4.8-19.2 2-24-6.4L150.3 121c-4.8-8.4-2-19.2 6.4-24z"/><path fill="#D1D1D1" d="M292.5 367.8l-1.6 1.6 20 29.9z"/><path fill="#EBEBEB" d="M373.6 472.8l81-46.7a17.6 17.6 0 0 0 6.4-24l-69.5-120.6-109.8 67.9 67.5 117c5.2 8.4 16 11.2 24.4 6.4z"/><path fill="#BB6F39" d="M244.6 57.5c-.8-3.2-.8-6.4 0-9.6a23 23 0 0 0-6.8 2.4L221.4 60 334 387.3 244.6 57.5zm128.2 388.1h.8v-.4l-.8.4z"/><path fill="#DBDBDB" d="M372.8 445.6h.8v-.4l-.8.4zM317.6 327l-3.5 2.4 20 58-16.5-60.4z"/><path fill="#F4B459" d="M256.6 36.3l90.2-24a17.8 17.8 0 0 1 21.6 12l102.6 377a17.4 17.4 0 0 1-12.4 21.2l-90.2 24a17.8 17.8 0 0 1-21.6-12l-102.2-377a16.9 16.9 0 0 1 12-21.2z"/><path fill="#EFC75E" d="M368.4 0H451c11.6 0 20.8 9.2 20.8 20.8v389.7c0 11.6-9.2 20.7-20.8 20.7h-82.6a20.6 20.6 0 0 1-20.8-20.7V20.8c0-11.6 9.2-20.8 20.8-20.8z"/><path fill="#E6E6E6" d="M313.3 311l33.5 123.4c2.4 9.2 12 14.8 21.6 12l90.2-24c9.2-2.3 14.8-12 12.4-21.1l-33.6-121.8-124.1 31.6z"/><path fill="#DBA250" d="M347.6 20.8c0-3.2.8-6 2-8.4-.8 0-2 0-2.8.4l-21.2 5.6 22 318.2V20.8z"/><path fill="#EFEFEF" d="M347.6 279.1v131.4c0 11.6 9.2 20.7 20.8 20.7H451c11.6 0 20.8-9.1 20.8-20.7V279H347.6z"/><path fill="#DDD" d="M347.6 302.3l-2.4.8 2.4 33.5z"/><path fill="#BFBFBF" d="M367.6 299.5v20h67.8v-20h-67.8zm0 103.8h28v-12h-28v12zm0-28h28v-12h-28v12zm0-27.9h28v-12h-28v12zm69.8 36c5.6 0 10 4.3 10 10 0 5.5-4.4 9.9-10 9.9-5.5 0-10-4.4-10-10s4.5-10 10-10z"/></g></svg>
