<svg xmlns="http://www.w3.org/2000/svg" width="512" height="512" viewBox="0 0 512 512"><path d="M255.8 127.7a128.3 128.3 0 0 0-128.1 128.1c0 70.7 57.5 128.2 128.1 128.2a128.3 128.3 0 0 0 0-256.3zm0-37.7a25 25 0 0 1-25-25V25a25 25 0 1 1 50 0v40a25 25 0 0 1-25 25zm0 331.6a25 25 0 0 0-25 25v40a25 25 0 1 0 50 0v-40a25 25 0 0 0-25-25zm117.3-283a25 25 0 0 1 0-35.4L401.4 75a25 25 0 0 1 35.3 35.4l-28.3 28.3a25 25 0 0 1-35.3 0zM138.6 373a25 25 0 0 0-35.4 0L75 401.4a25 25 0 0 0 35.4 35.3l28.3-28.3a25 25 0 0 0 0-35.3zm283-117.3a25 25 0 0 1 25-25h40a25 25 0 1 1 0 50h-40a25 25 0 0 1-25-25zm-331.6 0a25 25 0 0 0-25-25H25a25 25 0 1 0 0 50h40a25 25 0 0 0 25-25zm283 117.3a25 25 0 0 1 35.4 0l28.3 28.3a25 25 0 1 1-35.3 35.3L373 408.4a25 25 0 0 1 0-35.3zM138.7 138.6a25 25 0 0 0 0-35.4L110.3 75a25 25 0 0 0-35.4 35.4l28.3 28.3a25 25 0 0 0 35.4 0z"/></svg>
